<mxfile host="app.diagrams.net" modified="2024-04-26T20:19:35.800Z" agent="Mozilla/5.0 (Macintosh; Intel Mac OS X 10_15_7) AppleWebKit/605.1.15 (KHTML, like Gecko) Version/17.4.1 Safari/605.1.15" version="24.3.1" etag="7gU7z-Kk5ZGeS4owyb2U" type="github">
  <diagram name="Page-1" id="k1Lf6vgeIaNeTYRPgh2K">
    <mxGraphModel>
      <root>
        <mxCell id="0" />
        <mxCell id="1" parent="0" />
      </root>
    </mxGraphModel>
  </diagram>
</mxfile>
